<svg preserveAspectRatio="none" overflow="visible" style="display: block;" width="25" height="25" viewBox="0 0 25 25" fill="none" xmlns="http://www.w3.org/2000/svg">
<g id="Camada_x0020_1">
<path id="Vector" fill-rule="evenodd" clip-rule="evenodd" d="M7.02703 15.566C7.02703 16.004 6.6723 16.341 6.25 16.341C5.8277 16.341 5.47298 15.9872 5.47298 15.566C5.47298 15.128 5.8277 14.7911 6.25 14.7911C6.68919 14.7911 7.02703 15.1449 7.02703 15.566ZM21.875 24.9158H3.125C1.40203 24.9158 0 23.5175 0 21.7992V19.4575C0 18.1772 0.996624 17.0317 2.63514 16.1051C2.73649 16.0546 2.85473 16.0209 2.97298 16.0209C3.37838 16.0209 3.71622 16.341 3.71622 16.7621C3.71622 17.0317 3.56419 17.2675 3.34459 17.3854V17.4023C2.21284 18.0256 1.55406 18.7332 1.55406 19.4744V21.816C1.55406 22.6752 2.24663 23.3827 3.125 23.3827H21.875C22.7365 23.3827 23.4459 22.692 23.4459 21.816V19.4744C23.4459 17.3181 18.5473 15.5829 12.5 15.5829C11.0642 15.5829 9.74663 15.0943 8.68244 14.2857C7.3142 13.2412 6.40203 11.6408 6.2669 9.83827C6.25001 9.68666 6.23311 9.51819 6.23311 9.36658V4.68329C6.23311 2.1058 8.32771 0 10.9291 0H14.0541C16.6385 0 18.75 2.08895 18.75 4.68329V9.36658C18.75 9.53504 18.75 9.68666 18.7331 9.83827C18.6655 10.748 18.3953 11.5734 17.973 12.3315C17.8716 12.6348 17.5845 12.8706 17.2297 12.8706C16.7905 12.8706 16.4527 12.5168 16.4527 12.0957C16.4527 11.9609 16.4865 11.843 16.5372 11.7419C16.9426 11.0512 17.1791 10.2426 17.1791 9.38342V4.70013C17.1791 2.98181 15.777 1.58356 14.0541 1.58356H10.9291C9.20609 1.58356 7.80405 2.98181 7.80405 4.70013V9.38342C7.80405 11.8935 9.7973 13.9319 12.2804 14.0499C12.348 14.0499 12.4155 14.0667 12.4831 14.0667C13.8176 14.0667 15.0845 14.1509 16.3007 14.3194C16.6047 14.3699 16.9088 14.4036 17.2128 14.471C17.2297 14.471 17.2297 14.471 17.2466 14.471C17.5338 14.5216 17.821 14.5721 18.0912 14.6395C18.1081 14.6395 18.1419 14.6563 18.1588 14.6563C18.7162 14.7743 19.2399 14.9259 19.7466 15.0775C19.7635 15.0775 19.7973 15.0943 19.8142 15.0943C20.0676 15.1786 20.3041 15.246 20.5236 15.347C20.5405 15.347 20.5574 15.3639 20.5743 15.3639C20.8108 15.4481 21.0304 15.5323 21.2331 15.6334C21.25 15.6334 21.25 15.6334 21.25 15.6503C21.4696 15.7345 21.6723 15.8356 21.875 15.9367C21.9088 15.9535 21.9257 15.9703 21.9595 15.9872C22.1622 16.0883 22.348 16.1894 22.5169 16.2904C22.6858 16.3915 22.8547 16.4926 23.0237 16.6105C23.0405 16.6274 23.0743 16.6442 23.0912 16.6611C23.2432 16.7621 23.3953 16.8801 23.5304 16.998C23.5473 17.0148 23.5811 17.0317 23.598 17.0485C23.7331 17.1664 23.8514 17.2675 23.9696 17.3854L23.9865 17.4023C24.1047 17.5202 24.2061 17.6381 24.3074 17.7561C24.3243 17.7729 24.3412 17.8066 24.3581 17.8234C24.4426 17.9414 24.527 18.0593 24.6115 18.1941C24.6284 18.2109 24.6284 18.2278 24.6453 18.2446C24.7128 18.3625 24.7635 18.4805 24.8142 18.5984C24.8311 18.6152 24.8311 18.6489 24.848 18.6658C24.8987 18.8005 24.9324 18.9185 24.9493 19.0532C24.9493 19.0869 24.9662 19.1038 24.9662 19.1375C24.9831 19.2722 25 19.407 25 19.5418V21.8834C25 23.6018 23.598 25 21.875 25V24.9158Z" fill="#62ABB2"/>
</g>
</svg>
